<?xml version="1.0" encoding="UTF-8"?>
<svg version="1.1" xmlns="http://www.w3.org/2000/svg" width="262" height="296">
<path d="M0 0 C1.16015625 0.27408691 1.16015625 0.27408691 2.34375 0.55371094 C21.04141722 5.17500937 39.61848362 13.31294517 55 25 C55.85207031 25.64453125 56.70414063 26.2890625 57.58203125 26.953125 C84.37834948 47.86330881 100.55771236 72.24897743 109 105 C109.4021875 106.52947266 109.4021875 106.52947266 109.8125 108.08984375 C113.89272976 127.38593032 110.54331848 146.28242867 105.17431641 164.85644531 C98.88627947 185.1610778 98.88627947 185.1610778 101.0078125 205.875 C102.47320109 208.48757852 104.10395222 210.68052652 106 213 C107.23229119 214.60118095 108.46451176 216.20241721 109.69506836 217.80493164 C110.56529306 218.9353283 111.43851067 220.06342717 112.31469727 221.18920898 C121.20165275 232.63450497 128.11357121 246.31825155 128.1328125 261.16015625 C128.13410156 262.11857422 128.13539063 263.07699219 128.13671875 264.06445312 C128.13285156 265.05380859 128.12898438 266.04316406 128.125 267.0625 C128.12886719 268.05572266 128.13273437 269.04894531 128.13671875 270.07226562 C128.13478516 271.50795898 128.13478516 271.50795898 128.1328125 272.97265625 C128.13168457 273.84156494 128.13055664 274.71047363 128.12939453 275.60571289 C128.00687163 277.87284883 127.63404497 279.82617652 127 282 C121.30869657 280.62029008 118.24523848 276.58969443 115 272 C112.10271252 267.12423476 109.54064917 262.06810016 107 257 C104.14280633 257 102.94387367 258.3983241 100.625 260.0625 C94.54161554 264.05094412 88.17609589 266.25652761 81.25830078 268.42602539 C73.91745052 270.78728182 66.97984766 273.62919334 62.625 280.3125 C61.2265625 282.42578125 61.2265625 282.42578125 60 284 C59.34 284 58.68 284 58 284 C53.05127827 269.15383482 61.03634471 252.77110736 67.5625 239.6484375 C70.09253403 234.72419658 72.90414376 230.00237374 75.81933594 225.29882812 C83.24784621 213.23161126 89.06935706 200.79011835 86.53515625 186.3515625 C82.98845089 172.71038802 71.47210589 163.56135685 60.125 156.1875 C58.43672764 155.08196213 56.75166934 153.97149596 55.0703125 152.85546875 C54.33570801 152.37746826 53.60110352 151.89946777 52.84423828 151.40698242 C51 150 51 150 49 147 C48.360625 147.86625 47.72125 148.7325 47.0625 149.625 C44.22295975 153.06318976 40.89559773 155.18387618 37.1484375 157.54296875 C35.20499065 158.86097907 33.71612815 160.16333184 32.125 161.875 C31.42375 162.57625 30.7225 163.2775 30 164 C29.01 164 28.02 164 27 164 C18.01919928 152.40056744 13.79649326 139.73288732 13.9375 125.1875 C13.94201172 124.30384766 13.94652344 123.42019531 13.95117188 122.50976562 C13.96290134 120.33981441 13.98083505 118.16989828 14 116 C13.55188965 116.49661133 13.1037793 116.99322266 12.64208984 117.50488281 C11 119 11 119 8.7265625 118.921875 C6.00384978 118.00130165 3.66263734 116.7791461 1.19165039 115.32080078 C-7.40742487 110.25218849 -16.1173854 107.70797422 -25.80029297 105.50488281 C-29.21334008 104.72151085 -32.60489886 103.85746582 -36 103 C-34.18775933 100.98639926 -32.51133555 99.69594212 -30.1875 98.25 C-22.61782608 92.90670076 -18.49602528 85.91437602 -16 77 C-15.63723318 72.95446114 -15.67718208 69.04598456 -16 65 C-16.23783203 66.45019531 -16.23783203 66.45019531 -16.48046875 67.9296875 C-18.37432807 78.78688248 -20.7345714 88.41682261 -29.7734375 95.59375 C-40.24853761 102.2096027 -52.27940071 100.54148922 -63.796875 98.03515625 C-82.95175028 93.43816878 -102.80928052 87.49289414 -119 76 C-120.47146648 75.02988496 -121.95011718 74.07053115 -123.4375 73.125 C-124.03433594 72.73570313 -124.63117188 72.34640625 -125.24609375 71.9453125 C-127.14191289 70.92351243 -128.89768206 70.43432502 -131 70 C-131.50780894 67.79344925 -132.00591365 65.58466395 -132.5 63.375 C-132.7784375 62.14523438 -133.056875 60.91546875 -133.34375 59.6484375 C-133.94710112 56.29409256 -134.28188931 53.39256263 -134 50 C-131.4008542 47.16456822 -129.64784374 46.11910667 -125.85546875 45.421875 C-120.40478879 43.92838155 -117.1115523 39.50089499 -113.375 35.5 C-82.80758378 3.93037341 -43.54894231 -10.29924899 0 0 Z M-57.6875 31.625 C-59.36893573 34.66759799 -59.43782812 36.57034638 -59 40 C-58.08333333 42.08333333 -58.08333333 42.08333333 -56 43 C-52.45421315 43.16025399 -52.45421315 43.16025399 -49 42 C-47.00916823 39.5748212 -47.00916823 39.5748212 -46 37 C-47.8662161 33.45418941 -49.1340672 31.3289144 -53 30 C-56.03029124 29.65317916 -56.03029124 29.65317916 -57.6875 31.625 Z " fill="#F05735" transform="translate(134,12)"/>
<path d="M0 0 C16.99928836 11.43360823 36.66451133 30.06925938 42.71484375 50.40234375 C42.80894531 50.92957031 42.90304688 51.45679688 43 52 C42.45472656 51.855625 41.90945312 51.71125 41.34765625 51.5625 C35.17543181 50.04318321 29.10135934 49.13506889 22.80273438 50.46337891 C17.00126888 51.64701123 17.00126888 51.64701123 14.29492188 49.89819336 C12.70649957 48.20330072 11.35340562 46.45014468 10 44.5625 C8.97048701 43.25438421 7.93662778 41.94967724 6.8984375 40.6484375 C6.40311523 40.01518555 5.90779297 39.38193359 5.39746094 38.72949219 C-6.33855884 24.20504004 -25.7717886 16.23574388 -42 8 C-40.86535461 1.84829283 -38.51615581 -3.09754073 -33.4375 -6.9375 C-21.52415458 -12.13049672 -10.21069539 -6.32314842 0 0 Z " fill="#EE4735" transform="translate(201,9)"/>
</svg>
